<?xml version="1.0" encoding="UTF-8" standalone="no"?>
<svg
   xmlns:dc="http://purl.org/dc/elements/1.1/"
   xmlns:cc="http://creativecommons.org/ns#"
   xmlns:rdf="http://www.w3.org/1999/02/22-rdf-syntax-ns#"
   xmlns:svg="http://www.w3.org/2000/svg"
   xmlns="http://www.w3.org/2000/svg"
   xmlns:sodipodi="http://sodipodi.sourceforge.net/DTD/sodipodi-0.dtd"
   xmlns:inkscape="http://www.inkscape.org/namespaces/inkscape"
   height="34.570835"
   width="25.064024"
   viewBox="0 0 25.064024 34.570835"
   id="svg2"
   version="1.1"
   inkscape:version="0.91 r13725"
   sodipodi:docname="User 1.svg">
  <metadata
     id="metadata151">
    <rdf:RDF>
      <cc:Work
         rdf:about="">
        <dc:format>image/svg+xml</dc:format>
        <dc:type
           rdf:resource="http://purl.org/dc/dcmitype/StillImage" />
        <dc:title></dc:title>
      </cc:Work>
    </rdf:RDF>
  </metadata>
  <sodipodi:namedview
     pagecolor="#ffffff"
     bordercolor="#666666"
     borderopacity="1"
     objecttolerance="10"
     gridtolerance="10"
     guidetolerance="10"
     inkscape:pageopacity="0"
     inkscape:pageshadow="2"
     inkscape:window-width="1920"
     inkscape:window-height="1033"
     id="namedview149"
     showgrid="false"
     fit-margin-top="0"
     fit-margin-left="0"
     fit-margin-right="0"
     fit-margin-bottom="0"
     inkscape:zoom="6.3697707"
     inkscape:cx="2.4430275"
     inkscape:cy="16.03838"
     inkscape:window-x="-4"
     inkscape:window-y="-4"
     inkscape:window-maximized="1"
     inkscape:current-layer="svg2" />
   <g transform="translate(1.25,0) scale(0.9,1)">
   <path
     inkscape:connector-curvature="0"
     style="fill:url(#gradient0);fill-rule:evenodd;stroke:none"
     id="path6"
     d="m 4.2180275,32.457457 q 3,1.05 7.6999995,1.4 4.3,0.4 7.85,0.05 3.7,-0.35 4.2,-1.2 1.25,-2.05 -0.1,-5.2 -1.25,-2.85 -3.65,-4.6 -5.55,-4.15 -13.5499995,-1.9 -3.6,1 -5,2.9 -1.45000003,1.95 -1.10000003,5.55 0.2,1.8 3.65000003,3" />
   <path
     style="fill:none;stroke:#006600;stroke-width:1;stroke-linecap:round;stroke-linejoin:round"
     inkscape:connector-curvature="0"
     id="path8"
     d="m 4.2180275,32.457457 q -3.45000003,-1.2 -3.65000003,-3 -0.35,-3.6 1.10000003,-5.55 1.4,-1.9 5,-2.9 7.9999995,-2.25 13.5499995,1.9 2.4,1.75 3.65,4.6 1.35,3.15 0.1,5.2 -0.5,0.85 -4.2,1.2 -3.55,0.35 -7.85,-0.05 -4.6999995,-0.35 -7.6999995,-1.4 z" />
   <path
     inkscape:connector-curvature="0"
     style="fill:url(#gradient1);fill-rule:evenodd;stroke:none"
     id="path10"
     d="m 18.368027,21.957457 q -2.35,-1.4 -5.6,-1.4 l -3.2499995,-0.2 -1.45,0.2 q -0.95,5.6 2.3499995,12.45 4.2,-7.3 7.95,-11.05" />
   <path
     style="fill:none;stroke:#006600;stroke-width:1;stroke-linecap:round;stroke-linejoin:round"
     inkscape:connector-curvature="0"
     id="path12"
     d="m 18.368027,21.957457 q -3.75,3.75 -7.95,11.05 -3.2999995,-6.85 -2.3499995,-12.45 l 1.45,-0.2 3.2499995,0.2 q 3.25,0 5.6,1.4 z" />
   <path
     inkscape:connector-curvature="0"
     style="fill:url(#gradient2);fill-rule:evenodd;stroke:none"
     id="path14"
     d="m 12.368027,22.607457 q 3.4,0.45 6.25,-2.6 2.6,-2.8 3.5,-7.05 0.95,-4.4 -0.6,-7.7 -1.7,-3.75 -6.1,-4.50000003 -4.55,-0.8 -7.3499995,2.30000003 -2.55,2.7 -2.9,7.3 -0.35,4.5 1.5,8 2,3.8 5.6999995,4.25" />
   <path
     style="fill:none;stroke:#996600;stroke-width:1;stroke-linecap:round;stroke-linejoin:round"
     inkscape:connector-curvature="0"
     id="path16"
     d="m 12.368027,22.607457 q -3.6999995,-0.45 -5.6999995,-4.25 -1.85,-3.5 -1.5,-8 0.35,-4.6 2.9,-7.3 2.7999995,-3.10000003 7.3499995,-2.30000003 4.4,0.75000003 6.1,4.50000003 1.55,3.3 0.6,7.7 -0.9,4.25 -3.5,7.05 -2.85,3.05 -6.25,2.6 z" />
   <path
     inkscape:connector-curvature="0"
     style="fill:url(#gradient3);fill-rule:evenodd;stroke:none"
     id="path18"
     d="m 22.018027,9.257457 q -2.3,-5.1 -8.25,-2.85 -5.0999995,1.95 -7.4499995,-0.4 4.0499995,5.2 8.2499995,2.8 3.25,-1.85 7.45,0.45" />
   <path
     inkscape:connector-curvature="0"
     style="fill:url(#gradient4);fill-rule:evenodd;stroke:none"
     id="path20"
     d="m 22.518027,10.357457 q -0.05,-8.55 -7.5,-9.75000003 -6.0999995,-0.9 -8.8999995,5.65000003 1.1,1.35 3.75,1.85 1.3999995,0.3 2.5999995,-0.25 1.85,-0.85 3.95,-1.15 2.9,-0.4 4.7,1.3 1.35,1.2 1.4,2.35" />
  <path
     style="fill:none;stroke:#996600;stroke-width:1;stroke-linecap:round;stroke-linejoin:round"
     inkscape:connector-curvature="0"
     id="path22"
     d="m 22.518027,10.357457 q -0.05,-1.15 -1.4,-2.35 -1.8,-1.7 -4.7,-1.3 -2.1,0.3 -3.95,1.15 -1.2,0.55 -2.5999995,0.25 -2.65,-0.5 -3.75,-1.85 2.8,-6.55000003 8.8999995,-5.65000003 7.45,1.20000003 7.5,9.75000003 z" />
  <path
     inkscape:connector-curvature="0"
     style="fill:url(#gradient5);fill-rule:evenodd;stroke:none"
     id="path24"
     d="m 10.818027,7.757457 2.5,-1.05 q 1.65,-0.8 3.55,-0.8 4.25,0 5.15,3.75 0.5,-3.3 -2.8,-4.7 -3.6,-1.55 -6.15,-0.4 l -1.75,1.05 q -0.95,0.65 -1.4499995,0.75 -1.4,0.35 -2.1,0 l -0.4,-0.3 -0.3,-0.15 q 0,-0.75 -0.4,-0.1 -0.4,0.7 -0.05,1 0.6,0.5 1.9,0.8 l 2.2999995,0.15" />
   </g>
   <defs
     id="defs48">
    <radialGradient
       cx="0"
       cy="0"
       gradientTransform="matrix(0.0208,0,0,0.0208,11.718027,21.957457)"
       gradientUnits="userSpaceOnUse"
       id="gradient0"
       r="819.20001"
       spreadMethod="pad">
      <stop
         offset="0.0"
         stop-color="#ccffcc"
         id="stop51" />
      <stop
         offset="1.0"
         stop-color="#009900"
         id="stop53" />
    </radialGradient>
    <linearGradient
       gradientTransform="matrix(-7e-4,0.0077,0.0063,5e-4,13.318027,27.107457)"
       gradientUnits="userSpaceOnUse"
       id="gradient1"
       spreadMethod="pad"
       x1="-819.20001"
       x2="819.20001">
      <stop
         offset="0.0"
         stop-color="#99ccff"
         id="stop56" />
      <stop
         offset="0.09411764705882353"
         stop-color="#99ccff"
         id="stop58" />
      <stop
         offset="0.396078431372549"
         stop-color="#ffffff"
         id="stop60" />
      <stop
         offset="1.0"
         stop-color="#ccffff"
         id="stop62" />
    </linearGradient>
    <radialGradient
       cx="0"
       cy="0"
       gradientTransform="matrix(0.0277,0,0,0.0277,12.468027,2.257457)"
       gradientUnits="userSpaceOnUse"
       id="gradient2"
       r="819.20001"
       spreadMethod="pad">
      <stop
         offset="0.0"
         stop-color="#ffff99"
         id="stop65" />
      <stop
         offset="0.24313725490196078"
         stop-color="#ffcc66"
         id="stop67" />
      <stop
         offset="0.7137254901960784"
         stop-color="#ff9933"
         id="stop69" />
      <stop
         offset="1.0"
         stop-color="#996600"
         id="stop71" />
    </radialGradient>
    <linearGradient
       gradientTransform="matrix(0,0.0022,0.0096,0,14.168027,7.657457)"
       gradientUnits="userSpaceOnUse"
       id="gradient3"
       spreadMethod="pad"
       x1="-819.20001"
       x2="819.20001">
      <stop
         offset="0.0"
         stop-color="#ff9933"
         id="stop74" />
      <stop
         offset="0.48627450980392156"
         stop-color="#ff9933"
         id="stop76" />
      <stop
         offset="1.0"
         stop-color="#ffcc66"
         id="stop78" />
    </linearGradient>
    <radialGradient
       cx="0"
       cy="0"
       gradientTransform="matrix(0.016,0,0,0.016,13.068027,1.307457)"
       gradientUnits="userSpaceOnUse"
       id="gradient4"
       r="819.20001"
       spreadMethod="pad">
      <stop
         offset="0.0"
         stop-color="#f0ddbd"
         id="stop81" />
      <stop
         offset="0.3803921568627451"
         stop-color="#d8a650"
         id="stop83" />
      <stop
         offset="0.8196078431372549"
         stop-color="#996600"
         id="stop85" />
      <stop
         offset="1.0"
         stop-color="#926821"
         id="stop87" />
    </radialGradient>
    <linearGradient
       gradientTransform="matrix(-0.0075,0.0035,0.0026,0.0056,14.468027,6.057457)"
       gradientUnits="userSpaceOnUse"
       id="gradient5"
       spreadMethod="pad"
       x1="-819.20001"
       x2="819.20001">
      <stop
         offset="0.0"
         stop-color="#996600"
         id="stop90" />
      <stop
         offset="0.3411764705882353"
         stop-color="#f0ddbd"
         id="stop92" />
      <stop
         offset="0.6784313725490196"
         stop-color="#d8a650"
         id="stop94" />
      <stop
         offset="1.0"
         stop-color="#996600"
         id="stop96" />
    </linearGradient>
    <radialGradient
       cx="0"
       cy="0"
       gradientTransform="matrix(0.0208,0,0,0.0208,14.25,24.4)"
       gradientUnits="userSpaceOnUse"
       id="gradient6"
       r="819.20001"
       spreadMethod="pad">
      <stop
         offset="0.0"
         stop-color="#99ccff"
         id="stop99" />
      <stop
         offset="0.6235294117647059"
         stop-color="#5465fd"
         id="stop101" />
      <stop
         offset="1.0"
         stop-color="#0236b0"
         id="stop103" />
    </radialGradient>
    <linearGradient
       gradientTransform="matrix(7e-4,0.0076,0.0063,-5e-4,14.1,28.85)"
       gradientUnits="userSpaceOnUse"
       id="gradient7"
       spreadMethod="pad"
       x1="-819.20001"
       x2="819.20001">
      <stop
         offset="0.0"
         stop-color="#5465fd"
         id="stop106" />
      <stop
         offset="0.30980392156862746"
         stop-color="#99ccff"
         id="stop108" />
      <stop
         offset="1.0"
         stop-color="#ccffff"
         id="stop110" />
    </linearGradient>
    <radialGradient
       cx="0"
       cy="0"
       gradientTransform="matrix(0.0274,0,0,0.0274,14.15,4.75)"
       gradientUnits="userSpaceOnUse"
       id="gradient8"
       r="819.20001"
       spreadMethod="pad">
      <stop
         offset="0.0"
         stop-color="#ffcc66"
         id="stop113" />
      <stop
         offset="0.34509803921568627"
         stop-color="#ff9933"
         id="stop115" />
      <stop
         offset="1.0"
         stop-color="#660000"
         id="stop117" />
    </radialGradient>
    <linearGradient
       gradientTransform="matrix(4e-4,0.002,0.0096,-0.0019,14,9.75)"
       gradientUnits="userSpaceOnUse"
       id="gradient9"
       spreadMethod="pad"
       x1="-819.20001"
       x2="819.20001">
      <stop
         offset="0.0"
         stop-color="#990000"
         id="stop120" />
      <stop
         offset="0.9254901960784314"
         stop-color="#ff9933"
         id="stop122" />
      <stop
         offset="1.0"
         stop-color="#ff9933"
         id="stop124" />
    </linearGradient>
    <linearGradient
       gradientTransform="matrix(0,0.0139,0.0111,0,12.9,14)"
       gradientUnits="userSpaceOnUse"
       id="gradient10"
       spreadMethod="pad"
       x1="-819.20001"
       x2="819.20001">
      <stop
         offset="0.0"
         stop-color="#996600"
         id="stop127" />
      <stop
         offset="1.0"
         stop-color="#660000"
         id="stop129" />
    </linearGradient>
    <radialGradient
       cx="0"
       cy="0"
       gradientTransform="matrix(0.0264,0,0,0.0264,10.9,4.05)"
       gradientUnits="userSpaceOnUse"
       id="gradient11"
       r="819.20001"
       spreadMethod="pad">
      <stop
         offset="0.0"
         stop-color="#999999"
         id="stop132" />
      <stop
         offset="0.1803921568627451"
         stop-color="#666666"
         id="stop134" />
      <stop
         offset="0.8784313725490196"
         stop-color="#000000"
         id="stop136" />
      <stop
         offset="1.0"
         stop-color="#000000"
         id="stop138" />
    </radialGradient>
    <linearGradient
       gradientTransform="matrix(-0.0082,0.0011,2e-4,0.0016,12.35,6.8)"
       gradientUnits="userSpaceOnUse"
       id="gradient12"
       spreadMethod="pad"
       x1="-819.20001"
       x2="819.20001">
      <stop
         offset="0.0"
         stop-color="#333333"
         id="stop141" />
      <stop
         offset="0.40784313725490196"
         stop-color="#bdbdbd"
         id="stop143" />
      <stop
         offset="0.5843137254901961"
         stop-color="#999999"
         id="stop145" />
      <stop
         offset="1.0"
         stop-color="#333333"
         id="stop147" />
    </linearGradient>
  </defs>
</svg>
